<svg width="249" height="31" viewBox="0 0 249 31" fill="none" xmlns="http://www.w3.org/2000/svg">
<path d="M0.573374 2.90427C0.0738719 2.66865 -0.140047 2.07272 0.095572 1.57322C0.331191 1.07372 0.927125 0.859796 1.42663 1.09542L0.573374 2.90427ZM249 1.99984L242.371 11.4546L237.498 0.986572L249 1.99984ZM1.42663 1.09542C2.30078 1.50776 3.17732 1.91586 4.05622 2.3197L3.2212 4.13704C2.3362 3.73041 1.45358 3.31947 0.573374 2.90427L1.42663 1.09542ZM9.35234 4.68894C11.1241 5.46024 12.9051 6.21436 14.695 6.95109L13.9338 8.80056C12.1314 8.05872 10.3381 7.29936 8.55404 6.52271L9.35234 4.68894ZM20.0822 9.10524C21.8834 9.80449 23.6932 10.4863 25.5116 11.1504L24.8255 13.029C22.9945 12.3603 21.1721 11.6738 19.3584 10.9697L20.0822 9.10524ZM30.9813 13.0857C32.8089 13.7117 34.6447 14.3199 36.4885 14.9102L35.8787 16.815C34.0221 16.2206 32.1735 15.6081 30.3332 14.9778L30.9813 13.0857ZM42.032 16.6235C43.8831 17.1752 45.7418 17.7089 47.6082 18.2245L47.0757 20.1523C45.1964 19.6332 43.3247 19.0957 41.4608 18.5402L42.032 16.6235ZM53.2165 19.7129C55.0879 20.1895 56.9666 20.6478 58.8524 21.0878L58.398 23.0355C56.4991 22.5925 54.6074 22.1309 52.723 21.6511L53.2165 19.7129ZM64.5164 22.3492C66.4052 22.7499 68.3007 23.1322 70.2029 23.496L69.8272 25.4604C67.9119 25.0941 66.0032 24.7091 64.1014 24.3056L64.5164 22.3492ZM75.9129 24.5285C77.816 24.853 79.7256 25.1589 81.6412 25.4461L81.3447 27.424C79.4158 27.1348 77.4931 26.8268 75.5767 26.5001L75.9129 24.5285ZM87.3876 26.2488C89.3022 26.4968 91.2227 26.726 93.1488 26.9365L92.9316 28.9246C90.9922 28.7128 89.0586 28.4819 87.1308 28.2323L87.3876 26.2488ZM98.9222 27.509C100.845 27.6804 102.774 27.833 104.707 27.9666L104.569 29.9619C102.622 29.8273 100.681 29.6736 98.7447 29.5011L98.9222 27.509ZM110.498 28.3093C112.426 28.4042 114.359 28.4803 116.297 28.5374L116.238 30.5366C114.287 30.4791 112.341 30.4024 110.4 30.3068L110.498 28.3093ZM122.097 28.6513C123.064 28.6608 124.031 28.6655 125 28.6655V30.6655C124.025 30.6655 123.051 30.6607 122.078 30.6512L122.097 28.6513ZM125 28.6655C125.969 28.6655 126.936 28.6608 127.903 28.6513L127.922 30.6512C126.949 30.6607 125.975 30.6655 125 30.6655V28.6655ZM133.703 28.5374C135.641 28.4803 137.574 28.4042 139.502 28.3093L139.6 30.3068C137.659 30.4024 135.713 30.4791 133.762 30.5366L133.703 28.5374ZM145.293 27.9666C147.226 27.833 149.155 27.6804 151.078 27.509L151.255 29.5011C149.319 29.6736 147.378 29.8273 145.431 29.9619L145.293 27.9666ZM156.851 26.9365C158.777 26.726 160.698 26.4968 162.612 26.2488L162.869 28.2323C160.941 28.4819 159.008 28.7128 157.068 28.9246L156.851 26.9365ZM168.359 25.4461C170.274 25.1589 172.184 24.853 174.087 24.5285L174.423 26.5001C172.507 26.8268 170.584 27.1348 168.655 27.424L168.359 25.4461ZM179.797 23.496C181.699 23.1322 183.595 22.7499 185.484 22.3492L185.899 24.3056C183.997 24.7091 182.088 25.0941 180.173 25.4604L179.797 23.496ZM191.148 21.0878C193.033 20.6478 194.912 20.1895 196.784 19.7129L197.277 21.6511C195.393 22.1309 193.501 22.5925 191.602 23.0355L191.148 21.0878ZM202.392 18.2245C204.258 17.7089 206.117 17.1752 207.968 16.6235L208.539 18.5402C206.675 19.0957 204.804 19.6332 202.924 20.1523L202.392 18.2245ZM213.511 14.9102C215.355 14.3199 217.191 13.7117 219.019 13.0857L219.667 14.9778C217.827 15.6081 215.978 16.2206 214.121 16.815L213.511 14.9102ZM224.488 11.1503C226.307 10.4863 228.117 9.80448 229.918 9.10524L230.642 10.9697C228.828 11.6738 227.006 12.3603 225.175 13.029L224.488 11.1503ZM235.305 6.95108C237.095 6.21435 238.876 5.46023 240.648 4.68893L241.446 6.5227C239.662 7.29935 237.869 8.05871 236.066 8.80055L235.305 6.95108ZM0.573374 2.90427C0.0738719 2.66865 -0.140047 2.07272 0.095572 1.57322C0.331191 1.07372 0.927125 0.859796 1.42663 1.09542L0.573374 2.90427ZM249 1.99984L242.371 11.4546L237.498 0.986572L249 1.99984ZM1.42663 1.09542C2.30078 1.50776 3.17732 1.91586 4.05622 2.3197L3.2212 4.13704C2.3362 3.73041 1.45358 3.31947 0.573374 2.90427L1.42663 1.09542ZM9.35234 4.68894C11.1241 5.46024 12.9051 6.21436 14.695 6.95109L13.9338 8.80056C12.1314 8.05872 10.3381 7.29936 8.55404 6.52271L9.35234 4.68894ZM20.0822 9.10524C21.8834 9.80449 23.6932 10.4863 25.5116 11.1504L24.8255 13.029C22.9945 12.3603 21.1721 11.6738 19.3584 10.9697L20.0822 9.10524ZM30.9813 13.0857C32.8089 13.7117 34.6447 14.3199 36.4885 14.9102L35.8787 16.815C34.0221 16.2206 32.1735 15.6081 30.3332 14.9778L30.9813 13.0857ZM42.032 16.6235C43.8831 17.1752 45.7418 17.7089 47.6082 18.2245L47.0757 20.1523C45.1964 19.6332 43.3247 19.0957 41.4608 18.5402L42.032 16.6235ZM53.2165 19.7129C55.0879 20.1895 56.9666 20.6478 58.8524 21.0878L58.398 23.0355C56.4991 22.5925 54.6074 22.1309 52.723 21.6511L53.2165 19.7129ZM64.5164 22.3492C66.4052 22.7499 68.3007 23.1322 70.2029 23.496L69.8272 25.4604C67.9119 25.0941 66.0032 24.7091 64.1014 24.3056L64.5164 22.3492ZM75.9129 24.5285C77.816 24.853 79.7256 25.1589 81.6412 25.4461L81.3447 27.424C79.4158 27.1348 77.4931 26.8268 75.5767 26.5001L75.9129 24.5285ZM87.3876 26.2488C89.3022 26.4968 91.2227 26.726 93.1488 26.9365L92.9316 28.9246C90.9922 28.7128 89.0586 28.4819 87.1308 28.2323L87.3876 26.2488ZM98.9222 27.509C100.845 27.6804 102.774 27.833 104.707 27.9666L104.569 29.9619C102.622 29.8273 100.681 29.6736 98.7447 29.5011L98.9222 27.509ZM110.498 28.3093C112.426 28.4042 114.359 28.4803 116.297 28.5374L116.238 30.5366C114.287 30.4791 112.341 30.4024 110.4 30.3068L110.498 28.3093ZM122.097 28.6513C123.064 28.6608 124.031 28.6655 125 28.6655V30.6655C124.025 30.6655 123.051 30.6607 122.078 30.6512L122.097 28.6513ZM125 28.6655C125.969 28.6655 126.936 28.6608 127.903 28.6513L127.922 30.6512C126.949 30.6607 125.975 30.6655 125 30.6655V28.6655ZM133.703 28.5374C135.641 28.4803 137.574 28.4042 139.502 28.3093L139.6 30.3068C137.659 30.4024 135.713 30.4791 133.762 30.5366L133.703 28.5374ZM145.293 27.9666C147.226 27.833 149.155 27.6804 151.078 27.509L151.255 29.5011C149.319 29.6736 147.378 29.8273 145.431 29.9619L145.293 27.9666ZM156.851 26.9365C158.777 26.726 160.698 26.4968 162.612 26.2488L162.869 28.2323C160.941 28.4819 159.008 28.7128 157.068 28.9246L156.851 26.9365ZM168.359 25.4461C170.274 25.1589 172.184 24.853 174.087 24.5285L174.423 26.5001C172.507 26.8268 170.584 27.1348 168.655 27.424L168.359 25.4461ZM179.797 23.496C181.699 23.1322 183.595 22.7499 185.484 22.3492L185.899 24.3056C183.997 24.7091 182.088 25.0941 180.173 25.4604L179.797 23.496ZM191.148 21.0878C193.033 20.6478 194.912 20.1895 196.784 19.7129L197.277 21.6511C195.393 22.1309 193.501 22.5925 191.602 23.0355L191.148 21.0878ZM202.392 18.2245C204.258 17.7089 206.117 17.1752 207.968 16.6235L208.539 18.5402C206.675 19.0957 204.804 19.6332 202.924 20.1523L202.392 18.2245ZM213.511 14.9102C215.355 14.3199 217.191 13.7117 219.019 13.0857L219.667 14.9778C217.827 15.6081 215.978 16.2206 214.121 16.815L213.511 14.9102ZM224.488 11.1503C226.307 10.4863 228.117 9.80448 229.918 9.10524L230.642 10.9697C228.828 11.6738 227.006 12.3603 225.175 13.029L224.488 11.1503ZM235.305 6.95108C237.095 6.21435 238.876 5.46023 240.648 4.68893L241.446 6.5227C239.662 7.29935 237.869 8.05871 236.066 8.80055L235.305 6.95108Z" fill="#1B1D21"/>
</svg>
