<svg width="249" height="30" viewBox="0 0 249 30" fill="none" xmlns="http://www.w3.org/2000/svg">
<path d="M0.573374 27.7613C0.0738719 27.9969 -0.140047 28.5928 0.095572 29.0923C0.331191 29.5918 0.927125 29.8057 1.42663 29.5701L0.573374 27.7613ZM249 28.6657L242.371 19.2109L237.498 29.679L249 28.6657ZM1.42663 29.5701C2.30078 29.1578 3.17732 28.7497 4.05622 28.3458L3.2212 26.5285C2.3362 26.9351 1.45358 27.3461 0.573374 27.7613L1.42663 29.5701ZM9.35234 25.9766C11.1241 25.2053 12.9051 24.4512 14.695 23.7144L13.9338 21.865C12.1314 22.6068 10.3381 23.3662 8.55404 24.1428L9.35234 25.9766ZM20.0822 21.5603C21.8834 20.861 23.6932 20.1793 25.5116 19.5152L24.8255 17.6365C22.9945 18.3052 21.1721 18.9918 19.3584 19.6959L20.0822 21.5603ZM30.9813 17.5798C32.8089 16.9538 34.6447 16.3456 36.4885 15.7553L35.8787 13.8505C34.0221 14.4449 32.1735 15.0574 30.3332 15.6877L30.9813 17.5798ZM42.032 14.042C43.8831 13.4903 45.7418 12.9566 47.6082 12.4411L47.0757 10.5132C45.1964 11.0324 43.3247 11.5698 41.4608 12.1253L42.032 14.042ZM53.2165 10.9526C55.0879 10.476 56.9666 10.0177 58.8524 9.57776L58.398 7.63006C56.4991 8.07306 54.6074 8.53458 52.723 9.01443L53.2165 10.9526ZM64.5164 8.31636C66.4052 7.91564 68.3007 7.53331 70.2029 7.16955L69.8272 5.20515C67.9119 5.57142 66.0032 5.95641 64.1014 6.35991L64.5164 8.31636ZM75.9129 6.13698C77.816 5.81252 79.7256 5.5066 81.6412 5.21942L81.3447 3.24152C79.4158 3.53069 77.4931 3.83872 75.5767 4.16543L75.9129 6.13698ZM87.3876 4.4167C89.3022 4.16875 91.2227 3.93948 93.1488 3.72906L92.9316 1.74089C90.9922 1.95275 89.0586 2.1836 87.1308 2.43326L87.3876 4.4167ZM98.9222 3.15654C100.845 2.98517 102.774 2.83256 104.707 2.69891L104.569 0.703673C102.622 0.838239 100.681 0.991889 98.7447 1.16444L98.9222 3.15654ZM110.498 2.35626C112.426 2.26131 114.359 2.1852 116.297 2.12809L116.238 0.128955C114.287 0.186453 112.341 0.263088 110.4 0.358679L110.498 2.35626ZM122.097 2.01422C123.064 2.00475 124.031 2 125 2V0C124.025 0 123.051 0.00478078 122.078 0.0143202L122.097 2.01422ZM125 2C125.969 2 126.936 2.00475 127.903 2.01422L127.922 0.0143206C126.949 0.00478088 125.975 0 125 0V2ZM133.703 2.12809C135.641 2.1852 137.574 2.26132 139.502 2.35626L139.6 0.358681C137.659 0.263089 135.713 0.186454 133.762 0.128956L133.703 2.12809ZM145.293 2.69891C147.226 2.83257 149.155 2.98517 151.078 3.15655L151.255 1.16444C149.319 0.991891 147.378 0.83824 145.431 0.703675L145.293 2.69891ZM156.851 3.72907C158.777 3.93948 160.698 4.16875 162.612 4.4167L162.869 2.43326C160.941 2.18361 159.008 1.95275 157.068 1.74089L156.851 3.72907ZM168.359 5.21942C170.274 5.5066 172.184 5.81252 174.087 6.13699L174.423 4.16543C172.507 3.83872 170.584 3.53069 168.655 3.24152L168.359 5.21942ZM179.797 7.16956C181.699 7.53331 183.595 7.91564 185.484 8.31636L185.899 6.35991C183.997 5.95641 182.088 5.57142 180.173 5.20515L179.797 7.16956ZM191.148 9.57776C193.033 10.0177 194.912 10.476 196.784 10.9526L197.277 9.01444C195.393 8.53458 193.501 8.07306 191.602 7.63006L191.148 9.57776ZM202.392 12.4411C204.258 12.9566 206.117 13.4903 207.968 14.042L208.539 12.1253C206.675 11.5698 204.804 11.0324 202.924 10.5132L202.392 12.4411ZM213.511 15.7553C215.355 16.3456 217.191 16.9538 219.019 17.5798L219.667 15.6877C217.827 15.0574 215.978 14.4449 214.121 13.8505L213.511 15.7553ZM224.488 19.5152C226.307 20.1793 228.117 20.861 229.918 21.5603L230.642 19.6959C228.828 18.9918 227.006 18.3053 225.175 17.6365L224.488 19.5152ZM235.305 23.7144C237.095 24.4512 238.876 25.2053 240.648 25.9766L241.446 24.1428C239.662 23.3662 237.869 22.6068 236.066 21.865L235.305 23.7144ZM0.573374 27.7613C0.0738719 27.9969 -0.140047 28.5928 0.095572 29.0923C0.331191 29.5918 0.927125 29.8057 1.42663 29.5701L0.573374 27.7613ZM249 28.6657L242.371 19.2109L237.498 29.679L249 28.6657ZM1.42663 29.5701C2.30078 29.1578 3.17732 28.7497 4.05622 28.3458L3.2212 26.5285C2.3362 26.9351 1.45358 27.3461 0.573374 27.7613L1.42663 29.5701ZM9.35234 25.9766C11.1241 25.2053 12.9051 24.4512 14.695 23.7144L13.9338 21.865C12.1314 22.6068 10.3381 23.3662 8.55404 24.1428L9.35234 25.9766ZM20.0822 21.5603C21.8834 20.861 23.6932 20.1793 25.5116 19.5152L24.8255 17.6365C22.9945 18.3052 21.1721 18.9918 19.3584 19.6959L20.0822 21.5603ZM30.9813 17.5798C32.8089 16.9538 34.6447 16.3456 36.4885 15.7553L35.8787 13.8505C34.0221 14.4449 32.1735 15.0574 30.3332 15.6877L30.9813 17.5798ZM42.032 14.042C43.8831 13.4903 45.7418 12.9566 47.6082 12.4411L47.0757 10.5132C45.1964 11.0324 43.3247 11.5698 41.4608 12.1253L42.032 14.042ZM53.2165 10.9526C55.0879 10.476 56.9666 10.0177 58.8524 9.57776L58.398 7.63006C56.4991 8.07306 54.6074 8.53458 52.723 9.01443L53.2165 10.9526ZM64.5164 8.31636C66.4052 7.91564 68.3007 7.53331 70.2029 7.16955L69.8272 5.20515C67.9119 5.57142 66.0032 5.95641 64.1014 6.35991L64.5164 8.31636ZM75.9129 6.13698C77.816 5.81252 79.7256 5.5066 81.6412 5.21942L81.3447 3.24152C79.4158 3.53069 77.4931 3.83872 75.5767 4.16543L75.9129 6.13698ZM87.3876 4.4167C89.3022 4.16875 91.2227 3.93948 93.1488 3.72906L92.9316 1.74089C90.9922 1.95275 89.0586 2.1836 87.1308 2.43326L87.3876 4.4167ZM98.9222 3.15654C100.845 2.98517 102.774 2.83256 104.707 2.69891L104.569 0.703673C102.622 0.838239 100.681 0.991889 98.7447 1.16444L98.9222 3.15654ZM110.498 2.35626C112.426 2.26131 114.359 2.1852 116.297 2.12809L116.238 0.128955C114.287 0.186453 112.341 0.263088 110.4 0.358679L110.498 2.35626ZM122.097 2.01422C123.064 2.00475 124.031 2 125 2V0C124.025 0 123.051 0.00478078 122.078 0.0143202L122.097 2.01422ZM125 2C125.969 2 126.936 2.00475 127.903 2.01422L127.922 0.0143206C126.949 0.00478088 125.975 0 125 0V2ZM133.703 2.12809C135.641 2.1852 137.574 2.26132 139.502 2.35626L139.6 0.358681C137.659 0.263089 135.713 0.186454 133.762 0.128956L133.703 2.12809ZM145.293 2.69891C147.226 2.83257 149.155 2.98517 151.078 3.15655L151.255 1.16444C149.319 0.991891 147.378 0.83824 145.431 0.703675L145.293 2.69891ZM156.851 3.72907C158.777 3.93948 160.698 4.16875 162.612 4.4167L162.869 2.43326C160.941 2.18361 159.008 1.95275 157.068 1.74089L156.851 3.72907ZM168.359 5.21942C170.274 5.5066 172.184 5.81252 174.087 6.13699L174.423 4.16543C172.507 3.83872 170.584 3.53069 168.655 3.24152L168.359 5.21942ZM179.797 7.16956C181.699 7.53331 183.595 7.91564 185.484 8.31636L185.899 6.35991C183.997 5.95641 182.088 5.57142 180.173 5.20515L179.797 7.16956ZM191.148 9.57776C193.033 10.0177 194.912 10.476 196.784 10.9526L197.277 9.01444C195.393 8.53458 193.501 8.07306 191.602 7.63006L191.148 9.57776ZM202.392 12.4411C204.258 12.9566 206.117 13.4903 207.968 14.042L208.539 12.1253C206.675 11.5698 204.804 11.0324 202.924 10.5132L202.392 12.4411ZM213.511 15.7553C215.355 16.3456 217.191 16.9538 219.019 17.5798L219.667 15.6877C217.827 15.0574 215.978 14.4449 214.121 13.8505L213.511 15.7553ZM224.488 19.5152C226.307 20.1793 228.117 20.861 229.918 21.5603L230.642 19.6959C228.828 18.9918 227.006 18.3053 225.175 17.6365L224.488 19.5152ZM235.305 23.7144C237.095 24.4512 238.876 25.2053 240.648 25.9766L241.446 24.1428C239.662 23.3662 237.869 22.6068 236.066 21.865L235.305 23.7144Z" fill="#1B1D21"/>
</svg>
