<svg width="14" height="14" viewBox="0 0 14 14" fill="none" xmlns="http://www.w3.org/2000/svg">
<path d="M0.520312 7.19226C0.5199 6.77456 0.858183 6.43553 1.27589 6.43502L6.17507 6.42908C8.02241 6.42684 9.00735 4.24961 7.78914 2.86113L6.95382 1.90906C6.72094 1.64363 6.72071 1.24672 6.95329 0.980919C7.23336 0.660855 7.73099 0.660089 8.01189 0.97929L13.0888 6.74844C13.2954 6.98349 13.2958 7.36165 13.0897 7.5972L8.02386 13.3865C7.74378 13.7066 7.24607 13.7072 6.96536 13.3878C6.73234 13.1227 6.73178 12.7259 6.96405 12.46L7.79764 11.5058C9.01312 10.1143 8.0239 7.93948 6.17656 7.94172L1.27738 7.94766C0.859672 7.94817 0.520723 7.60997 0.520312 7.19226Z" fill="white"/>
</svg>
